# xmcd CD database file
#
# Track frame offsets:
#	150
#	9327
#	24044
#	39464
#	62060
#	75866
#	88390
#	104742
#	118975
#	131401
#	146471
#	158411
#	173663
#
# Disc length: 2472 seconds
#
# Revision: 0
# Processed by: cddbd v1.5.2PL0 Copyright (c) Steve Scherf et al.
# Submitted via: CDex 1.70beta2
#
DISCID=9809a60d
DTITLE=Brush, Shawn - Cdn. - The Wooden Hill
DYEAR=2006
DGENRE=Country
TTITLE0=Jupiter and Venus and Mars
TTITLE1=The Wooden Hill
TTITLE2=Little Girl
TTITLE3=A Song For You
TTITLE4=Seasons
TTITLE5=Be A Friend
TTITLE6=Carry Me Away
TTITLE7=Troubled Heart, Worried Mind
TTITLE8=Second Chance
TTITLE9=As Free As the Wind
TTITLE10=The Bitter End
TTITLE11=I Got A Roll
TTITLE12=Where I Want To Go
EXTD=YEAR: 2006
EXTT0=
EXTT1=
EXTT2=
EXTT3=
EXTT4=
EXTT5=
EXTT6=
EXTT7=
EXTT8=
EXTT9=
EXTT10=
EXTT11=
EXTT12=
PLAYORDER=
